<?xml  version="1.0" encoding="UTF-8"?>
<!DOCTYPE svg PUBLIC "-//W3C//DTD SVG 1.0//EN" "http://www.w3.org/TR/2001/REC-SVG-20010904/DTD/svg10.dtd" >
<svg xmlns="http://www.w3.org/2000/svg" >
<metadata>
<version>1.0</version>
<id><![CDATA[Futura T W01 Light]]></id>
<vendor>Monotype Imaging Inc.</vendor>
<credits>
<name>Fonts.com WebFonts</name>
<URL>http://webfonts.fonts.com</URL>
<role>Home of the Web fonts</role>
</credits>
<license>
<URL>http://webfonts.fonts.com/Legal</URL>
</license>
<copyright><![CDATA[(URW)++,Copyright 2003 by (URW)++ Design & Development]]></copyright>
<trademark><![CDATA[Please refer to the Copyright section for the font trademark attribution notices.]]></trademark>
<licensee>
<name></name>
</licensee>
</metadata>
<defs >
<font horiz-adv-x="492" id="95bbce7d-8a8c-4c2b-9466-3eee1f629ccf">
<font-face font-family="" panose-1="4 0 4 0 0 0 0 0 0 0" ascent="754" descent="-246" units-per-em="1000" alphabetic="0">
</font-face>
<missing-glyph horiz-adv-x="0" />

<glyph unicode="&#xA;" />
<glyph unicode="&#xD;" horiz-adv-x="0" />
<glyph unicode=" " horiz-adv-x="250" />
<glyph unicode="!" horiz-adv-x="259" d="M108 667H151V119H108V667ZM130 66Q145 66 155 56T166 30Q166 15 155 4T130 -7Q115 -7 104 4T93 30Q93 45 104 55T130 66Z"  />
<glyph unicode="&quot;" horiz-adv-x="360" d="M209 667H254L247 439H216L209 667ZM105 667H151L143 439H112L105 667Z"  />
<glyph unicode="#" horiz-adv-x="600" d="M231 420L211 260H372L391 420H231ZM555 420H436L416 260H530V220H411L383 -3L341 3L368 220H206L178 -3L136 3L163 220H45V260H168L188 420H70V460H193L218 670L261 664L236 460H396L422 670L465 664L440 460H555V420Z"  />
<glyph unicode="$" horiz-adv-x="547" d="M268 632Q244 630 224 620T188 593T165 554T156 507Q156 487 161 472T178 443T213 415T268 384V632ZM307 36Q334 42 356 56T395 90T421 134T431 185Q431 206 425 223T405 257T366 287T307 319V36ZM307 671Q350 665 386 641T442 578L410 552Q368 621 307 630V366Q331 354 347 346T375 332T395 320T412 308Q475 263 475 186Q475 151 463 120T428 63T374 20T307 -5V-107H268V-8Q126 -5 73 134L110 151Q160 32 268 32V338Q245 349 233 355T213 366T201 372T190 379Q148 406 130 436T112 509Q112 542 123 571T155 621T204 656T268 672V765H307V671Z"  />
<glyph unicode="%" horiz-adv-x="605" d="M436 219Q416 219 399 212T369 191T349 162T341 126Q341 85 368 58T436 30Q455 30 472 37T503 58T523 88T531 125Q531 144 524 161T503 191T473 211T436 219ZM436 256Q465 256 489 246T532 219T560 177T571 125Q571 97 561 73T532 32T489 4T435 -6Q407 -6 383 4T340 32T312 74T302 127Q302 154 312 177T341 218T383 246T436 256ZM513 667L117 -15L89 1L484 682L513 667ZM167 637Q148 637 131 630T101 609T81 580T73 544Q73 504 100 476T168 448Q187 448 204 455T234 476T254 506T262 543Q262 562 255 579T234 609T204 629T167 637ZM167 673Q196 673 220 663T263 636T291 594T302 542Q302 514 292 490T263 449T220 421T166 411Q138 411 114 421T71 449T43 491T33 544Q33 571 43 594T72 635T114 663T167 673Z"  />
<glyph unicode="&amp;" horiz-adv-x="629" d="M298 424Q332 449 352 466T384 497T399 525T403 557Q403 591 380 614T321 638Q304 638 289 631T263 611T245 582T238 546Q238 529 244 512T268 470Q281 451 286 443T298 424ZM286 368L277 362Q274 360 272 359Q260 351 248 344T223 328Q107 254 107 164Q107 135 117 110T145 67T187 38T238 27Q322 27 453 140L286 368ZM486 170Q524 206 564 259L603 241Q588 221 576 207T554 180T534 158T511 135L612 -1H556L477 105Q439 73 407 51T345 14T290 -6T236 -13Q200 -13 169 0T114 37T77 92T63 160Q63 193 74 223T109 283T171 341T262 402Q243 431 230 452T210 491T199 522T195 549Q195 576 205 599T233 641T274 669T325 679Q350 679 372 670T411 643T436 604T446 555Q446 492 386 439Q375 429 363 420T323 390L486 170Z"  />
<glyph unicode="&apos;" horiz-adv-x="245" d="M97 667H143L135 439H104L97 667Z"  />
<glyph unicode="(" horiz-adv-x="269" d="M190 720Q128 502 128 285Q128 67 190 -151L157 -174Q142 -137 129 -84T107 30T93 157T87 285Q87 347 92 412T107 539T129 653T157 743L190 720Z"  />
<glyph unicode=")" horiz-adv-x="269" d="M80 -151Q142 65 142 285Q142 394 127 503T80 720L113 743Q128 706 141 653T163 539T177 413T183 285Q183 223 178 158T163 31T141 -83T113 -174L80 -151Z"  />
<glyph unicode="*" horiz-adv-x="547" d="M252 729H295L292 596L417 640L431 599L303 561L384 455L349 430L273 540L198 430L163 455L244 561L116 599L129 640L255 596L252 729Z"  />
<glyph unicode="+" horiz-adv-x="547" d="M31 360H253V579H293V360H515V320H293V101H253V320H31V360Z"  />
<glyph unicode="&#x2c;" horiz-adv-x="203" d="M138 53L64 -147L38 -137L98 65L138 53Z"  />
<glyph unicode="-" horiz-adv-x="168" d="M168 227V187H0V227H168Z"  />
<glyph unicode="." horiz-adv-x="203" d="M102 66Q117 66 127 56T138 30Q138 15 127 4T102 -7Q87 -7 76 4T65 30Q65 44 76 55T102 66Z"  />
<glyph unicode="/" horiz-adv-x="544" d="M545 727L39 -174L7 -158L514 743L545 727Z"  />
<glyph unicode="0" horiz-adv-x="547" d="M273 634Q232 634 196 611T133 546T91 450T75 332Q75 268 90 213T132 118T195 55T275 32Q315 32 351 56T414 121T456 216T472 332Q472 395 457 450T414 546T351 610T273 634ZM276 675Q325 675 369 649T445 576T496 469T515 337Q515 265 496 202T444 92T367 18T273 -9Q223 -9 179 18T102 91T50 201T31 335Q31 405 50 466T103 574T181 648T276 675Z"  />
<glyph unicode="1" horiz-adv-x="547" d="M168 627L187 667H315V0H272V627H168Z"  />
<glyph unicode="2" horiz-adv-x="547" d="M471 40V0H61L316 282Q348 317 369 345T404 397T424 442T430 485Q430 516 418 543T384 590T335 622T273 634Q231 634 195 615T140 563Q129 546 125 528T119 478H75Q76 518 82 541T102 586Q128 626 176 650T275 675Q316 675 352 660T416 619T458 557T474 482Q474 444 461 410T416 334Q407 322 401 315T387 298T365 274T329 235L155 40H471Z"  />
<glyph unicode="3" horiz-adv-x="547" d="M262 366Q291 368 308 373T344 391Q372 410 387 439T403 502Q403 530 393 554T366 596T325 624T273 634Q239 634 210 620T165 582Q155 568 151 552T142 508H101Q105 540 110 559T126 597Q146 633 184 654T271 675Q308 675 340 662T396 625T433 571T447 502Q447 398 346 348Q399 327 427 285T456 185Q456 144 441 109T400 47T337 6T260 -9Q209 -9 165 14T98 78Q87 98 82 117T76 164H118Q121 138 125 123T140 93Q149 80 162 69T192 50T225 37T260 32Q291 32 318 44T367 77T400 126T412 185Q412 226 393 259T339 309Q322 317 306 320T262 326V366Z"  />
<glyph unicode="4" horiz-adv-x="547" d="M369 559L90 167H369V559ZM506 167V127H412V0H369V127H10L412 689V167H506Z"  />
<glyph unicode="5" horiz-adv-x="547" d="M246 627L191 447Q207 451 216 452T240 454Q288 454 330 437T402 388T450 316T468 225Q468 175 450 133T399 59T324 9T229 -9Q166 -9 115 19T30 101L69 117Q98 75 139 54T230 32Q271 32 306 47T368 87T409 148T424 224Q424 264 409 298T368 358T307 398T229 413Q202 413 180 407T129 384L216 667H469V627H246Z"  />
<glyph unicode="6" horiz-adv-x="547" d="M273 417Q233 417 198 402T137 361T95 300T80 225Q80 185 95 150T137 89T198 47T274 32Q313 32 348 47T409 88T450 148T466 222Q466 263 451 298T410 360T348 402T273 417ZM334 650L187 440Q215 451 233 454T276 458Q324 458 366 440T440 390T490 316T509 225Q509 177 491 134T440 60T365 10T273 -9Q223 -9 180 9T105 59T55 134T36 226Q36 262 47 297T79 362L300 675L334 650Z"  />
<glyph unicode="7" horiz-adv-x="547" d="M61 627V667H544L68 -7L35 18L466 627H61Z"  />
<glyph unicode="8" horiz-adv-x="547" d="M272 327Q242 327 215 316T167 284T135 238T123 181Q123 150 134 123T166 76T214 44T272 32Q303 32 330 43T377 75T409 122T421 179Q421 210 409 237T377 284T330 315T272 327ZM274 634Q247 634 223 624T180 595T151 553T140 501Q140 473 150 448T179 405T221 376T274 365Q302 365 326 375T369 404T397 447T408 500Q408 528 398 552T369 595T327 623T274 634ZM188 347Q96 401 96 500Q96 537 109 569T147 624T203 661T274 675Q312 675 344 662T401 625T439 570T453 501Q453 453 428 412T357 347Q466 295 466 180Q466 140 451 106T410 46T349 6T272 -9Q231 -9 196 5T136 45T95 104T80 177Q80 236 106 277T188 347Z"  />
<glyph unicode="9" horiz-adv-x="547" d="M274 634Q235 634 200 619T138 578T97 518T81 444Q81 403 96 368T137 307T199 265T275 250Q315 250 350 265T411 306T452 367T468 442Q468 482 453 517T411 578T350 619T274 634ZM213 18L360 227Q332 217 313 214T271 210Q223 210 181 228T107 278T57 352T38 442Q38 490 56 532T107 606T183 656T275 675Q324 675 367 657T442 608T492 533T511 441Q511 405 500 370T468 305L247 -8L213 18Z"  />
<glyph unicode=":" horiz-adv-x="203" d="M102 417Q117 417 127 407T138 381Q138 366 127 355T102 344Q87 344 76 355T65 381Q65 395 76 406T102 417ZM102 66Q117 66 127 56T138 30Q138 15 127 4T102 -7Q87 -7 76 4T65 30Q65 44 76 55T102 66Z"  />
<glyph unicode=";" horiz-adv-x="203" d="M106 417Q120 417 131 407T142 381Q142 366 131 355T106 344Q90 344 80 355T69 381Q69 395 80 406T106 417ZM138 53L64 -147L38 -137L98 65L138 53Z"  />
<glyph unicode="&lt;" horiz-adv-x="500" d="M466 504L80 335L466 165V121L33 315V355L466 548V504Z"  />
<glyph unicode="=" horiz-adv-x="547" d="M31 307H515V267H31V307ZM31 413H515V373H31V413Z"  />
<glyph unicode="&gt;" horiz-adv-x="500" d="M34 165L420 335L34 504V548L467 355V315L34 121V165Z"  />
<glyph unicode="?" horiz-adv-x="465" d="M231 66Q246 66 256 56T267 30Q267 15 256 4T231 -7Q216 -7 205 4T194 30Q194 44 205 55T231 66ZM369 257V247Q369 217 359 192T331 149T288 121T232 111Q202 111 177 121T133 150T104 193T93 248Q93 300 123 333T219 383Q243 390 258 394T283 402T299 410T312 420Q348 450 348 509Q348 536 339 558T314 597T276 623T229 633Q205 633 184 624T148 600T123 563T114 517Q114 506 115 496T120 469H79Q75 489 74 500T73 524Q73 556 85 583T118 630T169 661T232 673Q266 673 295 661T346 628T379 577T391 512Q391 469 373 433T325 378Q316 372 310 369T293 363T265 354T217 341Q136 320 136 247Q136 206 163 178T232 150Q260 150 283 164T317 203Q322 214 324 225T328 257H369Z"  />
<glyph unicode="@" horiz-adv-x="768" d="M386 475Q356 475 330 464T286 432T256 383T245 323Q245 266 278 230T365 193Q394 193 420 205T465 240T496 291T508 352Q508 379 499 401T474 440T435 466T386 475ZM538 280L530 228Q530 213 540 203T567 193Q590 193 610 208T647 248T672 307T681 377Q681 434 660 482T602 565T512 620T399 640Q334 640 278 616T180 551T114 454T90 333Q90 248 130 178T241 66Q313 26 412 26Q442 26 469 29T522 38T576 55T633 81L647 47Q586 17 532 4T413 -9Q301 -9 219 38Q141 83 97 161T52 334Q52 406 79 468T152 577T262 649T400 676Q467 676 525 654T626 592T693 499T717 382Q717 337 704 296T670 225T619 176T558 158Q531 158 512 175T492 217V227Q475 207 460 193T430 171T398 160T361 156Q327 156 298 168T248 202T216 254T204 321Q204 362 217 397T254 458T310 498T381 513Q425 513 456 495T516 434L525 504H565L538 280Z"  />
<glyph unicode="A" horiz-adv-x="584" d="M293 575L166 259H418L293 575ZM150 219L61 0H13L293 687L571 0H522L434 219H150Z"  />
<glyph unicode="B" horiz-adv-x="533" d="M245 40Q275 40 296 41T333 47T363 60T389 80Q435 121 435 185Q435 226 415 259T362 306Q339 316 310 320T237 325H133V40H245ZM218 365Q241 365 257 366T285 370T308 378T329 393Q352 411 362 435T373 493Q373 528 362 555T329 599Q309 614 284 620T218 627H133V365H218ZM90 667H234Q282 667 315 655T373 616Q418 566 418 492Q418 444 401 413T340 354Q369 346 385 339T418 318Q447 295 463 260T479 185Q479 143 462 107T412 44Q384 21 350 11T271 0H90V667Z"  />
<glyph unicode="C" horiz-adv-x="677" d="M623 530Q600 556 584 569T545 595Q510 615 472 625T398 635Q337 635 283 611T187 544T122 447T98 330Q98 264 124 207T202 107Q246 70 296 50T398 30Q438 30 482 43T565 81Q581 90 592 100T623 130V72Q567 28 514 9T401 -11Q330 -11 267 16T157 91T81 200T53 332Q53 402 80 464T155 574T265 648T399 676Q462 676 516 656T623 590V530Z"  />
<glyph unicode="D" horiz-adv-x="617" d="M221 40Q348 40 429 117Q473 158 496 214T519 334Q519 397 496 453T429 550Q348 627 221 627H133V40H221ZM90 667H222Q300 667 359 645T466 575Q514 527 539 465T564 334Q564 264 539 202T466 93Q418 45 359 23T222 0H90V667Z"  />
<glyph unicode="E" horiz-adv-x="463" d="M133 627V385H403V345H133V40H409V0H90V667H409V627H133Z"  />
<glyph unicode="F" horiz-adv-x="406" d="M133 627V385H353V345H133V0H90V667H359V627H133Z"  />
<glyph unicode="G" horiz-adv-x="771" d="M718 320Q718 288 716 263T710 218T699 179T681 143Q661 108 631 80T563 32T484 0T398 -11Q327 -11 265 16T155 89T81 198T53 331Q53 402 80 465T155 575T265 649T401 676Q458 676 511 658T610 604Q630 588 647 570T690 520L655 493Q634 521 621 536T591 564Q553 598 502 616T399 635Q337 635 283 611T187 545T121 448T97 330Q97 268 121 214T186 119T281 54T397 30Q433 30 469 39T538 66T597 106T641 158Q656 182 662 209T671 280H437V320H718Z"  />
<glyph unicode="H" horiz-adv-x="671" d="M538 384V667H581V0H538V344H133V0H90V667H133V384H538Z"  />
<glyph unicode="I" horiz-adv-x="223" d="M133 0H90V667H133V0Z"  />
<glyph unicode="J" horiz-adv-x="265" d="M175 2Q175 -34 170 -55T153 -94Q139 -115 114 -127T60 -139Q-16 -139 -53 -67L-21 -43Q8 -98 62 -98Q132 -98 132 2V667H175V2Z"  />
<glyph unicode="K" horiz-adv-x="539" d="M446 667H505L179 345L526 0H462L149 317L133 301V0H90V667H133V357L446 667Z"  />
<glyph unicode="L" horiz-adv-x="315" d="M133 40H302V0H90V667H133V40Z"  />
<glyph unicode="M" horiz-adv-x="897" d="M158 690L446 73L737 690L813 0H769L709 536L446 -24L185 536L127 0H83L158 690Z"  />
<glyph unicode="N" horiz-adv-x="783" d="M90 674L650 88V667H693V-17L133 569V0H90V674Z"  />
<glyph unicode="O" horiz-adv-x="798" d="M398 635Q337 635 283 611T187 547T122 452T98 337Q98 270 122 213T195 111Q237 73 289 52T396 30Q459 30 514 54T610 119T675 215T699 333Q699 395 675 450T610 546T514 611T398 635ZM398 676Q469 676 532 649T642 575T716 466T744 333Q744 262 717 200T642 90T531 16T396 -11Q325 -11 263 16T154 91T80 202T53 338Q53 406 81 467T156 574T266 648T398 676Z"  />
<glyph unicode="P" horiz-adv-x="445" d="M220 357Q287 357 327 393T367 492Q367 521 358 547T331 590Q311 610 284 618T214 627H133V357H220ZM133 0H90V667H218Q269 667 303 655T364 616Q387 592 399 560T412 492Q412 410 361 364T219 317H133V0Z"  />
<glyph unicode="Q" horiz-adv-x="798" d="M616 125Q639 152 655 176T680 225T694 274T699 329Q699 392 676 448T612 545T517 611T400 635Q338 635 283 611T187 546T122 449T98 331Q98 269 122 215T187 119T282 54T399 30Q450 30 494 46T587 99L421 273H481L616 125ZM677 0L617 68Q563 26 510 8T396 -11Q325 -11 263 16T154 90T80 199T53 332Q53 402 80 465T155 574T265 648T399 676Q470 676 532 649T642 575T716 466T744 333Q744 267 722 212T647 93L734 0H677Z"  />
<glyph unicode="R" horiz-adv-x="467" d="M197 355Q269 355 308 390T348 491Q348 530 332 561T289 607Q253 627 188 627H133V355H197ZM420 0H367L153 315H133V0H90V667H184Q235 667 267 660T325 633Q357 610 374 574T392 490Q392 438 370 398T308 337Q288 327 265 322T202 315L420 0Z"  />
<glyph unicode="S" horiz-adv-x="512" d="M393 555Q364 599 335 617T262 635Q235 635 213 626T173 599T147 559T137 509Q137 489 142 473T161 442T198 413T255 382Q286 367 306 357T341 340T366 326T388 313Q458 267 458 185Q458 144 442 109T397 47T330 5T249 -11Q112 -11 53 132L90 150Q102 124 109 111T127 86Q148 60 181 45T250 30Q283 30 313 42T365 76T400 125T413 185Q413 249 348 288Q340 293 333 296T314 306T282 322T224 351Q186 370 161 387T120 422T99 462T92 510Q92 546 105 576T140 629T194 663T263 676Q315 676 357 652T425 581L393 555Z"  />
<glyph unicode="T" horiz-adv-x="415" d="M227 0H184V627H13V667H401V627H227V0Z"  />
<glyph unicode="U" horiz-adv-x="633" d="M133 250Q133 219 134 197T138 159T145 130T157 107Q168 90 185 76T223 52T268 36T316 30Q365 30 409 51T476 107Q483 118 487 130T495 158T499 197T500 250V667H543V238Q543 205 542 182T536 140T525 108T508 80Q478 38 427 14T317 -11Q257 -11 206 13T125 80Q114 94 108 108T97 140T92 181T90 238V667H133V250Z"  />
<glyph unicode="V" horiz-adv-x="508" d="M256 104L448 667H494L256 -27L13 667H61L256 104Z"  />
<glyph unicode="W" horiz-adv-x="982" d="M243 103L485 703L711 103L919 667H968L711 -25L485 580L237 -25L13 667H62L243 103Z"  />
<glyph unicode="X" horiz-adv-x="462" d="M30 667H79L230 386L380 667H430L255 341L439 0H390L230 296L72 0H23L205 341L30 667Z"  />
<glyph unicode="Y" horiz-adv-x="514" d="M13 667H63L253 332L448 667H499L274 285V0H231V285L13 667Z"  />
<glyph unicode="Z" horiz-adv-x="555" d="M507 40V0H37L444 627H76V667H519L111 40H507Z"  />
<glyph unicode="[" horiz-adv-x="277" d="M130 -121H237V-160H87V729H237V689H130V-121Z"  />
<glyph unicode="\" horiz-adv-x="544" d="M537 -158L505 -174L-1 727L30 743L537 -158Z"  />
<glyph unicode="]" horiz-adv-x="277" d="M147 690H40V729H190V-160H40V-120H147V690Z"  />
<glyph unicode="^" horiz-adv-x="500" d="M36 381L221 668H279L464 381H414L249 634L85 381H36Z"  />
<glyph unicode="_" horiz-adv-x="500" d="M500 -76V-117H0V-76H500Z"  />
<glyph unicode="`" horiz-adv-x="500" d="M186 608L278 483L248 467L144 581L186 608Z"  />
<glyph unicode="a" horiz-adv-x="515" d="M246 380Q212 380 183 367T133 331T99 276T86 208Q86 169 98 136T131 78T182 40T246 26Q281 26 310 39T361 77T395 134T407 208Q407 252 395 283T356 337Q333 357 304 368T246 380ZM444 408V0H404V73Q377 31 337 10T245 -11Q201 -11 165 5T102 50T60 119T45 206Q45 252 59 291T100 358T163 401T244 417Q295 417 334 398T404 337V408H444Z"  />
<glyph unicode="b" horiz-adv-x="515" d="M270 380Q197 380 146 324Q108 283 108 208Q108 168 120 135T153 77T203 40T268 26Q302 26 331 39T382 77T416 133T429 203Q429 291 373 340Q352 359 325 369T270 380ZM111 337Q142 378 181 397T271 417Q315 417 351 402T414 358T455 291T470 206Q470 159 455 120T414 51T350 6T270 -11Q219 -11 179 10T111 73V0H71V729H111V337Z"  />
<glyph unicode="c" horiz-adv-x="441" d="M398 312Q362 349 329 364T255 380Q220 380 189 366T135 328T99 272T86 202Q86 165 99 133T135 77T189 40T255 26Q338 26 403 100V46Q368 17 333 3T255 -11Q210 -11 172 5T106 49T61 116T45 200Q45 246 61 286T105 355T172 400T256 417Q297 417 330 405T398 365V312Z"  />
<glyph unicode="d" horiz-adv-x="515" d="M246 380Q212 380 183 367T133 331T99 276T86 208Q86 169 98 136T131 78T182 40T246 26Q281 26 310 39T361 77T395 134T407 208Q407 252 395 283T356 337Q333 357 304 368T246 380ZM444 729V0H404V73Q377 31 337 10T245 -11Q201 -11 165 5T102 51T60 119T45 206Q45 252 59 291T100 358T163 401T244 417Q295 417 333 398T404 337V729H444Z"  />
<glyph unicode="e" horiz-adv-x="484" d="M393 237Q381 302 341 341T243 380Q214 380 189 370T144 340T110 295T92 237H393ZM89 199Q90 167 95 147T111 107Q131 70 168 48T248 26Q276 26 303 36T351 65Q362 75 370 86T392 120L426 100Q363 -11 245 -11Q202 -11 166 5T102 49T60 117T45 202Q45 248 60 287T101 355T164 400T244 417Q287 417 322 402T383 358T423 289T439 199H89Z"  />
<glyph unicode="f" horiz-adv-x="213" d="M111 0H71V371H26V408H71V602Q71 669 91 698Q122 741 178 741Q188 741 195 740T214 735V698Q202 701 195 702T182 703Q144 703 128 678T111 594V408H214V371H111V0Z"  />
<glyph unicode="g" horiz-adv-x="521" d="M250 380Q217 380 188 367T137 329T103 273T90 205Q90 166 101 134T134 78T184 41T248 27Q284 27 317 42T375 86Q393 108 403 139T413 206Q413 248 401 278T363 333Q339 356 309 368T250 380ZM450 8Q450 -23 448 -47T441 -91T427 -127T406 -160Q378 -195 337 -214T245 -234Q188 -234 142 -211T71 -145Q59 -126 54 -107T45 -59H86Q89 -85 94 -100T110 -132Q131 -163 166 -180T246 -197Q325 -197 367 -145T410 8V70Q342 -10 249 -10Q207 -10 171 6T107 52T65 120T49 204Q49 249 64 288T108 355T173 400T255 417Q303 417 338 399T410 337V408H450V8Z"  />
<glyph unicode="h" horiz-adv-x="441" d="M111 729V344Q136 383 165 400T236 417Q271 417 302 402T349 360Q360 343 364 319T369 257V0H329V257Q329 289 326 307T314 340Q303 359 281 369T231 380Q164 380 133 324Q120 303 116 279T111 212V0H71V729H111Z"  />
<glyph unicode="i" horiz-adv-x="183" d="M91 580Q107 580 117 570T128 544Q128 529 117 518T92 507Q77 507 66 518T55 544Q55 558 66 569T91 580ZM111 0H71V408H111V0Z"  />
<glyph unicode="j" horiz-adv-x="183" d="M91 580Q107 580 117 570T128 544Q128 529 117 518T92 507Q76 507 66 518T55 544Q55 558 66 569T91 580ZM111 -239H71V408H111V-239Z"  />
<glyph unicode="k" horiz-adv-x="396" d="M111 235L278 408H330L159 231L388 0H333L132 202L111 181V0H71V729H111V235Z"  />
<glyph unicode="l" horiz-adv-x="183" d="M111 0H71V729H111V0Z"  />
<glyph unicode="m" horiz-adv-x="648" d="M111 408V357Q131 389 156 403T216 417Q294 417 330 343Q350 381 379 399T450 417Q481 417 507 405T551 372Q565 354 570 331T576 267V0H536V272Q536 304 533 320T518 350Q494 380 448 380Q397 380 371 346T345 246V0H305V262Q305 288 302 305T290 336Q279 357 259 368T215 380Q188 380 164 366T128 327Q111 291 111 236V0H71V408H111Z"  />
<glyph unicode="n" horiz-adv-x="440" d="M111 408V344Q136 383 165 400T235 417Q271 417 301 402T348 360Q359 343 363 319T368 257V0H328V257Q328 289 325 307T313 340Q302 359 280 369T230 380Q164 380 133 324Q120 303 116 279T111 212V0H71V408H111Z"  />
<glyph unicode="o" horiz-adv-x="517" d="M257 380Q222 380 191 367T136 329T100 274T86 206Q86 168 99 135T135 78T189 40T256 26Q293 26 325 39T380 77T417 133T431 203Q431 240 418 272T381 329T326 366T257 380ZM259 417Q304 417 342 401T410 355T455 287T472 203Q472 158 456 119T410 51T342 6T257 -11Q213 -11 174 6T107 52T62 121T45 207Q45 250 62 288T108 355T176 400T259 417Z"  />
<glyph unicode="p" horiz-adv-x="515" d="M269 380Q234 380 205 367T154 329T120 272T108 199Q108 114 159 70Q208 26 269 26Q303 26 332 39T382 75T416 130T429 198Q429 237 417 270T384 328T334 366T269 380ZM71 -239V408H111V335Q138 375 178 396T270 417Q313 417 350 401T413 356T455 288T470 201Q470 154 456 116T415 49T352 5T272 -11Q221 -11 182 9T111 71V-239H71Z"  />
<glyph unicode="q" horiz-adv-x="515" d="M247 380Q213 380 184 367T133 330T99 274T86 204Q86 166 98 134T131 77T182 40T245 26Q280 26 312 41T369 82Q407 123 407 199Q407 238 395 271T362 329T312 366T247 380ZM404 71Q372 29 333 9T243 -11Q199 -11 163 4T101 48T60 115T45 201Q45 248 60 287T101 356T164 401T245 417Q296 417 336 396T404 335V408H444V-239H404V71Z"  />
<glyph unicode="r" horiz-adv-x="260" d="M111 408V355Q128 387 149 402T201 417Q212 417 221 415T245 407L223 372Q214 377 208 379T195 381Q178 381 162 372T133 347Q126 338 122 329T116 305T112 270T111 219V0H71V408H111Z"  />
<glyph unicode="s" horiz-adv-x="342" d="M253 333Q227 380 183 380Q154 380 133 361T112 314Q112 290 129 275T192 242Q212 234 224 230T244 221T258 214T271 205Q311 174 311 118Q311 90 301 67T274 26T232 -1T178 -11Q126 -11 90 17T38 97L77 109Q106 26 178 26Q217 26 243 52T270 117Q270 148 253 165T191 200Q124 224 98 249T71 312Q71 334 79 353T103 386T138 408T181 417Q252 417 287 351L253 333Z"  />
<glyph unicode="t" horiz-adv-x="194" d="M115 0H75V371H30V408H75V554H115V408H187V371H115V0Z"  />
<glyph unicode="u" horiz-adv-x="436" d="M111 165Q111 130 114 110T124 75Q135 53 161 40T218 26Q248 26 274 39T311 75Q318 89 321 109T324 165V408H364V151Q364 108 358 84T334 39Q314 16 283 3T217 -11Q182 -11 152 2T101 39Q84 59 78 83T71 151V408H111V165Z"  />
<glyph unicode="v" horiz-adv-x="390" d="M196 78L337 408H382L196 -25L8 408H55L196 78Z"  />
<glyph unicode="w" horiz-adv-x="672" d="M192 80L334 433L475 80L617 408H664L475 -25L334 329L193 -25L8 408H54L192 80Z"  />
<glyph unicode="x" horiz-adv-x="401" d="M23 408H75L201 245L325 408H377L229 214L393 0H341L201 183L61 0H8L174 214L23 408Z"  />
<glyph unicode="y" horiz-adv-x="428" d="M8 408H55L222 46L374 408H420L146 -239H101L201 -7L8 408Z"  />
<glyph unicode="z" horiz-adv-x="453" d="M433 37V0H18L351 371H71V408H435L104 37H433Z"  />
<glyph unicode="{" horiz-adv-x="240" d="M211 -164H202H188Q161 -164 140 -152T107 -120Q94 -94 94 -40V182Q94 221 81 240T36 270V300Q50 304 57 308T73 319Q79 325 83 333T90 354T93 386T94 436V609Q94 662 107 689Q118 709 139 721T188 733H202H211V697L196 696Q181 695 174 694T162 690Q137 674 137 611V435Q137 397 136 373T130 333T116 307T93 285Q118 265 127 243T137 183V-42Q137 -116 172 -125Q177 -127 183 -127T211 -127V-164Z"  />
<glyph unicode="|" horiz-adv-x="500" d="M271 667V-167H228V667H271Z"  />
<glyph unicode="}" horiz-adv-x="240" d="M29 733H38H52Q79 733 100 721T133 689Q146 662 146 609V387Q146 348 159 329T204 300V270Q190 265 183 262T167 250Q161 244 157 236T150 216T147 183T146 133V-40Q146 -94 133 -120Q122 -140 101 -152T52 -164H38H29V-127Q50 -127 58 -127T72 -124Q103 -113 103 -42V135Q103 172 104 196T110 236T124 263T147 285Q122 304 113 326T103 386V611Q103 674 78 690Q73 693 66 694T44 696Q42 696 38 696T29 697V733Z"  />
<glyph unicode="~" horiz-adv-x="667" d="M94 612Q123 668 153 691T224 715Q264 715 340 677Q381 655 402 648T444 641Q460 641 475 647T502 664Q511 673 522 686T536 706Q541 718 546 718Q554 718 572 700Q543 646 512 622T443 598Q430 598 419 600T393 607T358 621T310 644Q284 658 260 665T219 672Q205 672 190 666T164 649Q160 645 155 639T144 626T135 614T129 605Q126 597 124 595T120 593Q116 593 109 598T94 612Z"  />
<glyph unicode="&#xA0;" horiz-adv-x="250" />
<glyph unicode="&#xA1;" horiz-adv-x="259" d="M151 -160H108V387H151V-160ZM130 514Q145 514 155 504T166 477Q166 463 155 452T130 441Q115 441 104 452T93 478Q93 493 104 503T130 514Z"  />
<glyph unicode="&#xA2;" horiz-adv-x="547" d="M279 514Q246 508 220 493T175 455T146 402T135 338Q135 305 146 275T176 222T222 184T279 165V514ZM318 553Q352 551 385 538T447 501V449Q417 481 387 496T318 516V164Q354 166 390 185T452 236V183Q425 158 388 143T318 126V13H279V127Q238 132 204 150T146 195T108 259T94 337Q94 380 107 417T145 482T203 528T279 552V655H318V553Z"  />
<glyph unicode="&#xA3;" horiz-adv-x="547" d="M396 251V211H283Q285 201 285 196T286 183Q286 123 236 70L300 48Q330 37 345 34T372 30Q401 30 423 46T467 100L503 78Q449 -13 377 -13Q359 -13 336 -7T268 15Q233 27 217 31T186 36Q163 36 142 26T92 -10L68 22Q90 47 124 63T187 79Q216 107 229 132T243 186Q243 190 243 196T241 211H131V251H230Q219 271 213 284T199 309T182 336T158 374Q131 415 121 443T110 504Q110 540 123 571T161 625T217 661T288 674Q325 674 356 661T409 625T445 569T458 497H416Q414 523 411 538T399 569Q382 599 352 616T284 633Q257 633 234 623T192 594T164 552T154 501Q154 487 155 477T164 452T184 414T221 353Q234 332 242 317T257 291T267 271T276 251H396Z"  />
<glyph unicode="&#xA4;" horiz-adv-x="667" d="M334 537Q296 537 262 523T203 483T164 424T149 351Q149 312 163 279T203 220T262 180T334 165Q372 165 405 179T464 219T503 279T518 353Q518 390 504 423T464 482T405 522T334 537ZM163 205Q108 272 108 351Q108 390 120 424T160 494L70 584L96 610L186 520Q222 549 257 562T333 576Q412 576 479 521L570 610L596 584L506 494Q559 428 559 350Q559 310 546 276T505 207L596 116L571 90L479 181Q412 126 334 126Q258 126 189 179L99 89L73 116L163 205Z"  />
<glyph unicode="&#xA5;" horiz-adv-x="547" d="M293 288H499V248H291V0H248V248H48V288H246L187 391H48V431H164L30 667H81L270 332L465 667H517L378 431H499V391H354L293 288Z"  />
<glyph unicode="&#xA6;" horiz-adv-x="500" d="M271 153V-167H228V153H271ZM271 667V341H228V667H271Z"  />
<glyph unicode="&#xA7;" horiz-adv-x="547" d="M273 414Q247 414 224 404T183 377T155 336T145 287Q145 260 155 236T182 194T223 166T274 156Q300 156 323 166T364 193T392 234T402 285Q402 312 392 335T365 376T324 404T273 414ZM159 3Q159 -33 162 -52T175 -86Q187 -107 212 -118T273 -130Q328 -130 359 -100T391 -19Q391 46 335 78Q326 83 320 86T305 93T279 102T235 118Q165 143 133 183T100 284Q100 396 208 446Q158 472 137 503T116 586Q116 656 161 697T282 739Q331 739 367 721T421 668Q429 651 433 629T441 567H396Q396 699 281 699Q226 699 194 668T161 583Q161 531 202 499Q210 493 217 489T233 480T258 471T297 459Q367 437 397 410Q421 389 434 357T447 286Q447 232 421 193T339 125Q390 102 413 68T436 -21Q436 -92 393 -131T273 -170Q222 -170 186 -153T133 -103Q124 -87 120 -65T115 3H159Z"  />
<glyph unicode="&#xA8;" horiz-adv-x="500" d="M334 566Q348 566 359 556T370 530Q370 515 359 504T334 493Q318 493 308 504T297 530Q297 544 308 555T334 566ZM168 566Q183 566 193 556T204 530Q204 515 193 504T168 493Q153 493 142 504T131 530Q131 545 142 555T168 566Z"  />
<glyph unicode="&#xA9;" horiz-adv-x="740" d="M375 629Q240 629 151 531Q115 490 95 440T75 336Q75 274 98 220T161 126T255 62T371 38Q432 38 485 61T579 125T642 219T666 334Q666 394 643 447T580 541T487 605T375 629ZM376 677Q445 677 506 650T614 576T687 467T714 334Q714 263 687 200T614 91T505 17T371 -10Q299 -10 237 17T128 91T54 201T27 336Q27 407 54 469T128 577T239 650T376 677ZM514 421Q484 456 453 472T384 489Q352 489 323 476T272 441T238 389T225 327Q225 295 238 267T272 217T323 182T384 169Q457 169 514 235V183Q482 157 451 146T385 134Q345 134 309 149T246 192T203 254T187 329Q187 369 202 404T245 467T308 509T384 525Q421 525 452 513T514 474V421Z"  />
<glyph unicode="&#xAA;" horiz-adv-x="337" d="M161 643Q116 643 86 611T56 531Q56 479 85 445T161 411Q207 411 236 444T266 530Q266 559 258 579T233 615Q200 643 161 643ZM290 661V393H264V442Q227 387 160 387Q131 387 107 397T66 427T39 472T29 529Q29 559 38 584T65 628T106 657T159 667Q224 667 264 615V661H290Z"  />
<glyph unicode="&#xAB;" horiz-adv-x="347" d="M187 81L162 57L33 207L162 356L187 332L81 207L187 81ZM294 81L268 57L139 207L268 356L294 332L187 207L294 81Z"  />
<glyph unicode="&#xAC;" horiz-adv-x="500" d="M423 227H33V267H466V0H423V227Z"  />
<glyph unicode="&#xAD;" horiz-adv-x="168" d="M168 227V187H0V227H168Z"  />
<glyph unicode="&#xAE;" horiz-adv-x="740" d="M375 629Q240 629 151 531Q115 491 95 441T75 336Q75 274 98 220T161 125T255 61T371 38Q432 38 486 61T580 125T643 219T666 334Q666 394 643 447T580 541T487 605T375 629ZM376 677Q445 677 506 650T614 576T687 467T714 334Q714 263 687 200T614 91T505 17T371 -10Q299 -10 237 17T128 91T54 201T27 336Q27 407 54 469T128 577T239 650T376 677ZM358 349Q435 349 435 417Q435 485 353 485H330V349H358ZM494 140H448L330 313V140H293V520H351Q473 520 473 416Q473 369 442 340Q429 328 415 323T373 314L494 140Z"  />
<glyph unicode="&#xAF;" horiz-adv-x="500" d="M374 544V506H125V544H374Z"  />
<glyph unicode="&#xB0;" horiz-adv-x="547" d="M275 627Q235 627 208 600T180 534Q180 514 187 497T207 468T237 448T274 440Q293 440 310 447T339 467T359 497T367 534Q367 553 360 569T340 599T311 619T275 627ZM275 667Q302 667 326 657T368 628T396 585T407 534Q407 506 397 482T368 439T326 411T274 400Q246 400 222 410T179 439T151 481T140 533Q140 561 150 585T179 628T222 656T275 667Z"  />
<glyph unicode="&#xB1;" horiz-adv-x="547" d="M31 40H515V0H31V40ZM31 360H253V579H293V360H515V320H293V101H253V320H31V360Z"  />
<glyph unicode="&#xB2;" horiz-adv-x="387" d="M322 297V267H52L218 439Q239 460 252 476T274 506T286 532T290 557Q290 575 283 590T262 617T232 635T194 642Q168 642 146 631T113 601Q106 591 104 580T100 549H65Q67 576 70 590T83 618Q100 642 131 657T195 672Q222 672 245 663T286 638T314 601T324 555Q324 538 321 524T307 493T278 456T232 406L127 297H322Z"  />
<glyph unicode="&#xB3;" horiz-adv-x="387" d="M186 489Q228 492 251 512T274 567Q274 599 252 620T196 641Q126 641 116 567H84Q96 672 194 672Q218 672 239 664T275 642T299 608T308 567Q308 538 293 514T251 476Q280 464 297 438T314 379Q314 355 304 334T277 296T237 271T187 262Q155 262 127 276T83 315Q75 327 72 339T68 370H101Q103 354 106 345T115 327Q126 313 146 303T188 293Q207 293 223 300T252 319T272 346T280 380Q280 416 256 437T186 460V489Z"  />
<glyph unicode="&#xB4;" horiz-adv-x="500" d="M252 467L223 483L314 608L357 581L252 467Z"  />
<glyph unicode="&#xB5;" horiz-adv-x="436" d="M71 -239V408H111V165Q111 130 114 110T124 75Q135 53 161 40T218 26Q248 26 274 39T311 75Q318 89 321 109T324 165V408H364V151Q364 108 358 84T334 39Q314 16 284 3T219 -11Q186 -11 161 -1T111 32V-239H71Z"  />
<glyph unicode="&#xB6;" horiz-adv-x="547" d="M225 -102V338Q192 338 169 343T125 362Q93 382 75 419T57 500Q57 535 69 567T104 623Q124 644 159 655T239 667H482L464 630H420V-102H380V630H265V-102H225Z"  />
<glyph unicode="&#xB7;" horiz-adv-x="206" d="M104 243Q119 243 129 233T140 207Q140 192 129 181T104 170Q89 170 78 181T67 207Q67 221 78 232T104 243Z"  />
<glyph unicode="&#xB8;" horiz-adv-x="500" d="M215 -191L184 -175L266 -47L311 -68L215 -191Z"  />
<glyph unicode="&#xB9;" horiz-adv-x="387" d="M121 637L137 667H223V267H189V637H121Z"  />
<glyph unicode="&#xBA;" horiz-adv-x="339" d="M168 643Q145 643 125 634T89 610T65 574T56 529Q56 504 64 483T88 445T123 420T167 411Q191 411 212 420T248 444T273 481T282 527Q282 551 273 572T249 609T213 634T168 643ZM169 667Q199 667 224 656T268 626T298 582T309 527Q309 497 298 472T268 428T224 398T168 387Q139 387 114 398T69 428T40 473T29 529Q29 557 40 582T70 626T115 656T169 667Z"  />
<glyph unicode="&#xBB;" horiz-adv-x="347" d="M159 332L184 356L314 207L184 57L159 81L266 207L159 332ZM53 332L78 356L207 207L78 57L53 81L160 207L53 332Z"  />
<glyph unicode="&#xBC;" horiz-adv-x="904" d="M768 323L602 105H768V323ZM861 105V75H802V0H768V75H539L802 420V105H861ZM664 667L269 -15L240 1L636 682L664 667ZM121 637L137 667H223V267H189V637H121Z"  />
<glyph unicode="&#xBD;" horiz-adv-x="904" d="M839 30V0H569L736 172Q777 214 792 239T807 289Q807 307 800 322T779 349T749 367T711 374Q686 374 664 363T630 334Q623 323 621 313T617 282H582Q584 309 587 323T601 351Q618 375 649 390T713 405Q740 405 763 396T803 371T831 334T841 288Q841 271 838 257T824 226T795 189T749 139L644 30H839ZM664 667L269 -15L240 1L636 682L664 667ZM121 637L137 667H223V267H189V637H121Z"  />
<glyph unicode="&#xBE;" horiz-adv-x="904" d="M767 323L601 105H767V323ZM860 105V75H801V0H767V75H538L801 420V105H860ZM664 667L269 -15L240 1L635 682L664 667ZM186 489Q228 492 251 512T274 567Q274 599 252 620T196 641Q126 641 116 567H84Q96 672 194 672Q218 672 239 664T275 642T299 608T308 567Q308 538 293 514T251 476Q280 464 297 438T314 379Q314 355 304 334T277 296T237 271T187 262Q155 262 127 276T83 315Q75 327 72 339T68 370H101Q103 354 106 345T115 327Q126 313 146 303T188 293Q207 293 223 300T252 319T272 346T280 380Q280 416 256 437T186 460V489Z"  />
<glyph unicode="&#xBF;" horiz-adv-x="465" d="M233 513Q248 513 258 503T269 476Q269 462 258 451T233 440Q218 440 207 451T196 477Q196 491 207 502T233 513ZM95 250Q95 262 95 268T95 279T96 288T99 298Q111 343 146 369T232 396Q262 396 287 386T330 357T359 314T370 259Q370 206 340 173T245 123Q220 116 205 112T181 104T165 96T152 86Q135 72 126 49T116 -3Q116 -57 149 -92T234 -127Q258 -127 279 -118T315 -94T340 -57T349 -10Q349 1 348 10T343 37H384Q388 17 389 6T391 -18Q391 -50 379 -77T346 -123T295 -154T232 -166Q197 -166 168 -154T118 -121T85 -71T73 -6Q73 37 91 73T139 129Q148 134 154 137T171 144T198 153T246 166Q327 187 327 260Q327 301 300 329T231 357Q204 357 181 343T147 304Q142 293 140 282T135 250H95Z"  />
<glyph unicode="&#xC0;" horiz-adv-x="584" d="M293 575L166 259H418L293 575ZM150 219L61 0H13L293 687L571 0H522L434 219H150ZM209 854L301 729L271 713L167 827L209 854Z"  />
<glyph unicode="&#xC1;" horiz-adv-x="584" d="M293 575L166 259H418L293 575ZM150 219L61 0H13L293 687L571 0H522L434 219H150ZM282 713L253 729L344 854L387 827L282 713Z"  />
<glyph unicode="&#xC2;" horiz-adv-x="584" d="M293 575L166 259H418L293 575ZM150 219L61 0H13L293 687L571 0H522L434 219H150ZM289 853L410 739L378 714L289 801L200 714L167 739L289 853Z"  />
<glyph unicode="&#xC3;" horiz-adv-x="584" d="M293 575L166 259H418L293 575ZM150 219L61 0H13L293 687L571 0H522L434 219H150ZM165 753Q190 811 234 811Q242 811 248 810T263 806T285 797T321 781Q338 774 349 774Q362 774 371 783T391 812L416 793Q398 735 346 735Q335 735 324 738T292 751Q263 764 250 768T229 773Q204 773 191 734L165 753Z"  />
<glyph unicode="&#xC4;" horiz-adv-x="584" d="M293 575L166 259H418L293 575ZM150 219L61 0H13L293 687L571 0H522L434 219H150ZM363 811Q377 811 388 801T399 775Q399 760 388 749T363 738Q347 738 337 749T326 775Q326 789 337 800T363 811ZM197 811Q212 811 222 801T233 775Q233 760 222 749T197 738Q182 738 171 749T160 775Q160 790 171 800T197 811Z"  />
<glyph unicode="&#xC5;" horiz-adv-x="584" d="M293 575L166 259H418L293 575ZM150 219L61 0H13L293 687L571 0H522L434 219H150ZM292 828Q275 828 263 816T251 788Q251 771 263 759T293 746Q310 746 322 758T334 787Q334 804 322 816T292 828ZM292 864Q324 864 346 842T369 788Q369 756 347 734T293 711Q261 711 239 733T216 788Q216 819 238 841T292 864Z"  />
<glyph unicode="&#xC6;" horiz-adv-x="851" d="M289 573L164 259H416L289 573ZM147 219L61 0H13L282 667H572L588 627H313L412 385H680L696 345H429L552 40H828L844 0H521L433 219H147Z"  />
<glyph unicode="&#xC7;" horiz-adv-x="677" d="M318 -198L282 -180L370 -47L420 -72L318 -198ZM623 530Q600 556 584 569T545 595Q510 615 472 625T398 635Q337 635 283 611T187 544T122 447T98 330Q98 264 124 207T202 107Q246 70 296 50T398 30Q438 30 482 43T565 81Q581 90 592 100T623 130V72Q567 28 514 9T401 -11Q330 -11 267 16T157 91T81 200T53 332Q53 402 80 464T155 574T265 648T399 676Q462 676 516 656T623 590V530Z"  />
<glyph unicode="&#xC8;" horiz-adv-x="463" d="M133 627V385H403V345H133V40H409V0H90V667H409V627H133ZM192 854L284 729L254 713L150 827L192 854Z"  />
<glyph unicode="&#xC9;" horiz-adv-x="463" d="M133 627V385H403V345H133V40H409V0H90V667H409V627H133ZM229 713L200 729L291 854L334 827L229 713Z"  />
<glyph unicode="&#xCA;" horiz-adv-x="463" d="M133 627V385H403V345H133V40H409V0H90V667H409V627H133ZM249 853L370 739L338 714L249 801L160 714L127 739L249 853Z"  />
<glyph unicode="&#xCB;" horiz-adv-x="463" d="M133 627V385H403V345H133V40H409V0H90V667H409V627H133ZM324 811Q338 811 349 801T360 775Q360 760 349 749T324 738Q308 738 298 749T287 775Q287 789 298 800T324 811ZM158 811Q173 811 183 801T194 775Q194 760 183 749T158 738Q143 738 132 749T121 775Q121 790 132 800T158 811Z"  />
<glyph unicode="&#xCC;" horiz-adv-x="223" d="M133 0H90V667H133V0ZM40 854L132 729L102 713L-2 827L40 854Z"  />
<glyph unicode="&#xCD;" horiz-adv-x="223" d="M133 0H90V667H133V0ZM102 713L73 729L164 854L207 827L102 713Z"  />
<glyph unicode="&#xCE;" horiz-adv-x="223" d="M133 0H90V667H133V0ZM120 853L241 739L209 714L120 801L31 714L-2 739L120 853Z"  />
<glyph unicode="&#xCF;" horiz-adv-x="223" d="M133 0H90V667H133V0ZM214 811Q228 811 239 801T250 775Q250 760 239 749T214 738Q198 738 188 749T177 775Q177 789 188 800T214 811ZM48 811Q63 811 73 801T84 775Q84 760 73 749T48 738Q33 738 22 749T11 775Q11 790 22 800T48 811Z"  />
<glyph unicode="&#xD0;" horiz-adv-x="617" d="M221 40Q348 40 429 117Q473 158 496 214T519 333Q519 397 497 451T436 544T342 605T221 627H133V383H300V343H133V40H221ZM90 343H23V383H90V667H222Q300 667 359 645T466 575Q514 527 539 465T564 333Q564 264 539 202T466 93Q418 45 359 23T222 0H90V343Z"  />
<glyph unicode="&#xD1;" horiz-adv-x="783" d="M90 674L650 88V667H693V-17L133 569V0H90V674ZM262 753Q287 811 331 811Q339 811 345 810T360 806T382 797T418 781Q435 774 446 774Q459 774 468 783T488 812L513 793Q495 735 443 735Q432 735 421 738T389 751Q360 764 347 768T326 773Q301 773 288 734L262 753Z"  />
<glyph unicode="&#xD2;" horiz-adv-x="798" d="M398 635Q337 635 283 611T187 547T122 452T98 337Q98 270 122 213T195 111Q237 73 289 52T396 30Q459 30 514 54T610 119T675 215T699 333Q699 395 675 450T610 546T514 611T398 635ZM398 676Q469 676 532 649T642 575T716 466T744 333Q744 262 717 200T642 90T531 16T396 -11Q325 -11 263 16T154 91T80 202T53 338Q53 406 81 467T156 574T266 648T398 676ZM334 854L426 729L396 713L292 827L334 854Z"  />
<glyph unicode="&#xD3;" horiz-adv-x="798" d="M398 635Q337 635 283 611T187 547T122 452T98 337Q98 270 122 213T195 111Q237 73 289 52T396 30Q459 30 514 54T610 119T675 215T699 333Q699 395 675 450T610 546T514 611T398 635ZM398 676Q469 676 532 649T642 575T716 466T744 333Q744 262 717 200T642 90T531 16T396 -11Q325 -11 263 16T154 91T80 202T53 338Q53 406 81 467T156 574T266 648T398 676ZM382 713L353 729L444 854L487 827L382 713Z"  />
<glyph unicode="&#xD4;" horiz-adv-x="798" d="M398 635Q337 635 283 611T187 547T122 452T98 337Q98 270 122 213T195 111Q237 73 289 52T396 30Q459 30 514 54T610 119T675 215T699 333Q699 395 675 450T610 546T514 611T398 635ZM398 676Q469 676 532 649T642 575T716 466T744 333Q744 262 717 200T642 90T531 16T396 -11Q325 -11 263 16T154 91T80 202T53 338Q53 406 81 467T156 574T266 648T398 676ZM396 853L517 739L485 714L396 801L307 714L274 739L396 853Z"  />
<glyph unicode="&#xD5;" horiz-adv-x="798" d="M398 635Q337 635 283 611T187 547T122 452T98 337Q98 270 122 213T195 111Q237 73 289 52T396 30Q459 30 514 54T610 119T675 215T699 333Q699 395 675 450T610 546T514 611T398 635ZM398 676Q469 676 532 649T642 575T716 466T744 333Q744 262 717 200T642 90T531 16T396 -11Q325 -11 263 16T154 91T80 202T53 338Q53 406 81 467T156 574T266 648T398 676ZM276 753Q301 811 345 811Q353 811 359 810T374 806T396 797T432 781Q449 774 460 774Q473 774 482 783T502 812L527 793Q509 735 457 735Q446 735 435 738T403 751Q374 764 361 768T340 773Q315 773 302 734L276 753Z"  />
<glyph unicode="&#xD6;" horiz-adv-x="798" d="M398 635Q337 635 283 611T187 547T122 452T98 337Q98 270 122 213T195 111Q237 73 289 52T396 30Q459 30 514 54T610 119T675 215T699 333Q699 395 675 450T610 546T514 611T398 635ZM398 676Q469 676 532 649T642 575T716 466T744 333Q744 262 717 200T642 90T531 16T396 -11Q325 -11 263 16T154 91T80 202T53 338Q53 406 81 467T156 574T266 648T398 676ZM470 811Q484 811 495 801T506 775Q506 760 495 749T470 738Q454 738 444 749T433 775Q433 789 444 800T470 811ZM304 811Q319 811 329 801T340 775Q340 760 329 749T304 738Q289 738 278 749T267 775Q267 790 278 800T304 811Z"  />
<glyph unicode="&#xD7;" horiz-adv-x="547" d="M104 537L273 367L443 537L470 509L301 340L470 171L443 144L273 313L104 144L77 171L246 340L77 509L104 537Z"  />
<glyph unicode="&#xD8;" horiz-adv-x="798" d="M197 108Q287 30 399 30Q460 30 514 54T610 119T675 215T699 332Q699 450 619 538L197 108ZM592 563Q550 598 501 616T398 635Q337 635 283 611T187 546T122 449T98 333Q98 220 171 135L592 563ZM139 106Q97 155 75 213T53 334Q53 403 80 465T155 574T265 648T398 676Q522 676 623 592L704 673L731 647L651 566Q744 464 744 332Q744 262 717 200T642 91T532 17T399 -11Q334 -11 278 11T166 80L85 -4L60 23L139 106Z"  />
<glyph unicode="&#xD9;" horiz-adv-x="633" d="M133 250Q133 219 134 197T138 159T145 130T157 107Q168 90 185 76T223 52T268 36T316 30Q365 30 409 51T476 107Q483 118 487 130T495 158T499 197T500 250V667H543V238Q543 205 542 182T536 140T525 108T508 80Q478 38 427 14T317 -11Q257 -11 206 13T125 80Q114 94 108 108T97 140T92 181T90 238V667H133V250ZM247 854L339 729L309 713L205 827L247 854Z"  />
<glyph unicode="&#xDA;" horiz-adv-x="633" d="M133 250Q133 219 134 197T138 159T145 130T157 107Q168 90 185 76T223 52T268 36T316 30Q365 30 409 51T476 107Q483 118 487 130T495 158T499 197T500 250V667H543V238Q543 205 542 182T536 140T525 108T508 80Q478 38 427 14T317 -11Q257 -11 206 13T125 80Q114 94 108 108T97 140T92 181T90 238V667H133V250ZM296 713L267 729L358 854L401 827L296 713Z"  />
<glyph unicode="&#xDB;" horiz-adv-x="633" d="M133 250Q133 219 134 197T138 159T145 130T157 107Q168 90 185 76T223 52T268 36T316 30Q365 30 409 51T476 107Q483 118 487 130T495 158T499 197T500 250V667H543V238Q543 205 542 182T536 140T525 108T508 80Q478 38 427 14T317 -11Q257 -11 206 13T125 80Q114 94 108 108T97 140T92 181T90 238V667H133V250ZM314 853L435 739L403 714L314 801L225 714L192 739L314 853Z"  />
<glyph unicode="&#xDC;" horiz-adv-x="633" d="M133 250Q133 219 134 197T138 159T145 130T157 107Q168 90 185 76T223 52T268 36T316 30Q365 30 409 51T476 107Q483 118 487 130T495 158T499 197T500 250V667H543V238Q543 205 542 182T536 140T525 108T508 80Q478 38 427 14T317 -11Q257 -11 206 13T125 80Q114 94 108 108T97 140T92 181T90 238V667H133V250ZM388 811Q402 811 413 801T424 775Q424 760 413 749T388 738Q372 738 362 749T351 775Q351 789 362 800T388 811ZM222 811Q237 811 247 801T258 775Q258 760 247 749T222 738Q207 738 196 749T185 775Q185 790 196 800T222 811Z"  />
<glyph unicode="&#xDD;" horiz-adv-x="514" d="M13 667H63L253 332L448 667H499L274 285V0H231V285L13 667ZM237 713L208 729L299 854L342 827L237 713Z"  />
<glyph unicode="&#xDE;" horiz-adv-x="445" d="M220 257Q287 257 327 293T367 392Q367 421 358 447T331 490Q311 510 284 518T214 527H133V257H220ZM133 0H90V667H133V567H218Q269 567 303 555T364 516Q412 466 412 392Q412 310 361 264T219 217H133V0Z"  />
<glyph unicode="&#xDF;" d="M71 371H28V408H71V585Q71 661 109 699Q128 719 156 730T216 741Q247 741 273 731T319 701T348 656T359 599Q359 512 281 476Q312 465 330 455T366 429Q384 413 398 392T423 347T440 296T446 244Q446 185 419 133T340 44Q310 23 280 12T207 -5V36Q252 42 288 60T351 106T391 169T405 246Q405 298 382 344T316 417Q294 432 270 440T207 455V490Q233 492 247 496T274 510Q294 524 306 548T318 600Q318 646 289 675T214 704Q187 704 164 694T130 665Q111 637 111 571V0H71V371Z"  />
<glyph unicode="&#xE0;" horiz-adv-x="515" d="M246 380Q212 380 183 367T133 331T99 276T86 208Q86 169 98 136T131 78T182 40T246 26Q281 26 310 39T361 77T395 134T407 208Q407 252 395 283T356 337Q333 357 304 368T246 380ZM444 408V0H404V73Q377 31 337 10T245 -11Q201 -11 165 5T102 50T60 119T45 206Q45 252 59 291T100 358T163 401T244 417Q295 417 334 398T404 337V408H444ZM220 608L312 483L282 467L178 581L220 608Z"  />
<glyph unicode="&#xE1;" horiz-adv-x="515" d="M246 380Q212 380 183 367T133 331T99 276T86 208Q86 169 98 136T131 78T182 40T246 26Q281 26 310 39T361 77T395 134T407 208Q407 252 395 283T356 337Q333 357 304 368T246 380ZM444 408V0H404V73Q377 31 337 10T245 -11Q201 -11 165 5T102 50T60 119T45 206Q45 252 59 291T100 358T163 401T244 417Q295 417 334 398T404 337V408H444ZM246 467L217 483L308 608L351 581L246 467Z"  />
<glyph unicode="&#xE2;" horiz-adv-x="515" d="M246 380Q212 380 183 367T133 331T99 276T86 208Q86 169 98 136T131 78T182 40T246 26Q281 26 310 39T361 77T395 134T407 208Q407 252 395 283T356 337Q333 357 304 368T246 380ZM444 408V0H404V73Q377 31 337 10T245 -11Q201 -11 165 5T102 50T60 119T45 206Q45 252 59 291T100 358T163 401T244 417Q295 417 334 398T404 337V408H444ZM258 606L379 492L347 467L258 554L169 467L136 492L258 606Z"  />
<glyph unicode="&#xE3;" horiz-adv-x="515" d="M246 380Q212 380 183 367T133 331T99 276T86 208Q86 169 98 136T131 78T182 40T246 26Q281 26 310 39T361 77T395 134T407 208Q407 252 395 283T356 337Q333 357 304 368T246 380ZM444 408V0H404V73Q377 31 337 10T245 -11Q201 -11 165 5T102 50T60 119T45 206Q45 252 59 291T100 358T163 401T244 417Q295 417 334 398T404 337V408H444ZM135 509Q160 567 204 567Q212 567 218 566T233 562T255 553T291 537Q308 530 319 530Q332 530 341 539T361 568L386 549Q368 491 316 491Q305 491 294 494T262 507Q233 520 220 524T199 529Q174 529 161 490L135 509Z"  />
<glyph unicode="&#xE4;" horiz-adv-x="515" d="M246 380Q212 380 183 367T133 331T99 276T86 208Q86 169 98 136T131 78T182 40T246 26Q281 26 310 39T361 77T395 134T407 208Q407 252 395 283T356 337Q333 357 304 368T246 380ZM444 408V0H404V73Q377 31 337 10T245 -11Q201 -11 165 5T102 50T60 119T45 206Q45 252 59 291T100 358T163 401T244 417Q295 417 334 398T404 337V408H444ZM340 566Q354 566 365 556T376 530Q376 515 365 504T340 493Q324 493 314 504T303 530Q303 544 314 555T340 566ZM174 566Q189 566 199 556T210 530Q210 515 199 504T174 493Q159 493 148 504T137 530Q137 545 148 555T174 566Z"  />
<glyph unicode="&#xE5;" horiz-adv-x="515" d="M246 380Q212 380 183 367T133 331T99 276T86 208Q86 169 98 136T131 78T182 40T246 26Q281 26 310 39T361 77T395 134T407 208Q407 252 395 283T356 337Q333 357 304 368T246 380ZM444 408V0H404V73Q377 31 337 10T245 -11Q201 -11 165 5T102 50T60 119T45 206Q45 252 59 291T100 358T163 401T244 417Q295 417 334 398T404 337V408H444ZM257 584Q240 584 228 572T216 544Q216 527 228 515T258 502Q275 502 287 514T299 543Q299 560 287 572T257 584ZM257 620Q289 620 311 598T334 544Q334 512 312 490T258 467Q226 467 204 489T181 544Q181 575 203 597T257 620Z"  />
<glyph unicode="&#xE6;" horiz-adv-x="793" d="M221 208Q159 208 123 184T86 117Q86 75 120 51T215 26Q277 26 314 51T351 120Q351 160 316 184T221 208ZM703 236Q699 260 694 275T679 306Q659 340 624 360T551 380Q493 380 452 341T401 236H703ZM398 198Q399 169 403 150T418 110Q438 72 474 49T554 26Q582 26 610 36T659 65Q670 75 678 86T701 119L735 95Q663 -11 554 -11Q498 -11 454 16T386 91Q370 42 326 16T216 -11Q179 -11 148 -2T94 25T58 65T45 116Q45 145 58 168T94 209T151 235T225 245Q267 245 296 236T353 203Q353 290 317 335T211 380Q195 380 181 378T150 372T115 360T73 342V383Q111 401 144 409T215 417Q334 417 378 303Q389 326 397 338T419 363Q444 388 480 402T553 417Q607 417 653 389T723 311Q734 288 740 262T749 198H398Z"  />
<glyph unicode="&#xE7;" horiz-adv-x="441" d="M178 -191L147 -175L230 -47L274 -68L178 -191ZM398 312Q362 349 329 364T255 380Q220 380 189 366T135 328T99 272T86 202Q86 165 99 133T135 77T189 40T255 26Q338 26 403 100V46Q368 17 333 3T255 -11Q210 -11 172 5T106 49T61 116T45 200Q45 246 61 286T105 355T172 400T256 417Q297 417 330 405T398 365V312Z"  />
<glyph unicode="&#xE8;" horiz-adv-x="484" d="M393 237Q381 302 341 341T243 380Q214 380 189 370T144 340T110 295T92 237H393ZM89 199Q90 167 95 147T111 107Q131 70 168 48T248 26Q276 26 303 36T351 65Q362 75 370 86T392 120L426 100Q363 -11 245 -11Q202 -11 166 5T102 49T60 117T45 202Q45 248 60 287T101 355T164 400T244 417Q287 417 322 402T383 358T423 289T439 199H89ZM206 608L298 483L268 467L164 581L206 608Z"  />
<glyph unicode="&#xE9;" horiz-adv-x="484" d="M393 237Q381 302 341 341T243 380Q214 380 189 370T144 340T110 295T92 237H393ZM89 199Q90 167 95 147T111 107Q131 70 168 48T248 26Q276 26 303 36T351 65Q362 75 370 86T392 120L426 100Q363 -11 245 -11Q202 -11 166 5T102 49T60 117T45 202Q45 248 60 287T101 355T164 400T244 417Q287 417 322 402T383 358T423 289T439 199H89ZM236 467L207 483L298 608L341 581L236 467Z"  />
<glyph unicode="&#xEA;" horiz-adv-x="484" d="M393 237Q381 302 341 341T243 380Q214 380 189 370T144 340T110 295T92 237H393ZM89 199Q90 167 95 147T111 107Q131 70 168 48T248 26Q276 26 303 36T351 65Q362 75 370 86T392 120L426 100Q363 -11 245 -11Q202 -11 166 5T102 49T60 117T45 202Q45 248 60 287T101 355T164 400T244 417Q287 417 322 402T383 358T423 289T439 199H89ZM248 606L369 492L337 467L248 554L159 467L126 492L248 606Z"  />
<glyph unicode="&#xEB;" horiz-adv-x="484" d="M393 237Q381 302 341 341T243 380Q214 380 189 370T144 340T110 295T92 237H393ZM89 199Q90 167 95 147T111 107Q131 70 168 48T248 26Q276 26 303 36T351 65Q362 75 370 86T392 120L426 100Q363 -11 245 -11Q202 -11 166 5T102 49T60 117T45 202Q45 248 60 287T101 355T164 400T244 417Q287 417 322 402T383 358T423 289T439 199H89ZM330 566Q344 566 355 556T366 530Q366 515 355 504T330 493Q314 493 304 504T293 530Q293 544 304 555T330 566ZM164 566Q179 566 189 556T200 530Q200 515 189 504T164 493Q149 493 138 504T127 530Q127 545 138 555T164 566Z"  />
<glyph unicode="&#xEC;" horiz-adv-x="183" d="M111 0H71V408H111V0ZM28 608L120 483L90 467L-14 581L28 608Z"  />
<glyph unicode="&#xED;" horiz-adv-x="183" d="M111 0H71V408H111V0ZM95 467L66 483L157 608L200 581L95 467Z"  />
<glyph unicode="&#xEE;" horiz-adv-x="183" d="M111 0H71V408H111V0ZM111 606L232 492L200 467L111 554L22 467L-11 492L111 606Z"  />
<glyph unicode="&#xEF;" horiz-adv-x="183" d="M111 0H71V408H111V0ZM201 566Q215 566 226 556T237 530Q237 515 226 504T201 493Q185 493 175 504T164 530Q164 544 175 555T201 566ZM35 566Q50 566 60 556T71 530Q71 515 60 504T35 493Q20 493 9 504T-2 530Q-2 545 9 555T35 566Z"  />
<glyph unicode="&#xF0;" horiz-adv-x="517" d="M257 379Q222 379 191 366T136 328T100 273T86 205Q86 167 99 135T135 78T189 40T256 26Q293 26 325 39T380 77T417 133T431 203Q431 240 418 272T381 328T326 365T257 379ZM93 732Q135 721 176 703T248 665L355 720L374 689L283 640Q327 603 362 556T422 453T460 338T473 217Q473 166 458 124T414 52T347 6T261 -11Q215 -11 176 5T107 50T62 118T45 202Q45 247 61 286T107 354T175 399T258 416Q344 416 411 352Q398 397 383 434T347 504T302 564T244 620L138 561L120 593L209 643Q186 659 151 674T75 704L93 732Z"  />
<glyph unicode="&#xF1;" horiz-adv-x="440" d="M111 408V344Q136 383 165 400T235 417Q271 417 301 402T348 360Q359 343 363 319T368 257V0H328V257Q328 289 325 307T313 340Q302 359 280 369T230 380Q164 380 133 324Q120 303 116 279T111 212V0H71V408H111ZM95 509Q120 567 164 567Q172 567 178 566T193 562T215 553T251 537Q268 530 279 530Q292 530 301 539T321 568L346 549Q328 491 276 491Q265 491 254 494T222 507Q193 520 180 524T159 529Q134 529 121 490L95 509Z"  />
<glyph unicode="&#xF2;" horiz-adv-x="517" d="M257 380Q222 380 191 367T136 329T100 274T86 206Q86 168 99 135T135 78T189 40T256 26Q293 26 325 39T380 77T417 133T431 203Q431 240 418 272T381 329T326 366T257 380ZM259 417Q304 417 342 401T410 355T455 287T472 203Q472 158 456 119T410 51T342 6T257 -11Q213 -11 174 6T107 52T62 121T45 207Q45 250 62 288T108 355T176 400T259 417ZM216 608L308 483L278 467L174 581L216 608Z"  />
<glyph unicode="&#xF3;" horiz-adv-x="517" d="M257 380Q222 380 191 367T136 329T100 274T86 206Q86 168 99 135T135 78T189 40T256 26Q293 26 325 39T380 77T417 133T431 203Q431 240 418 272T381 329T326 366T257 380ZM259 417Q304 417 342 401T410 355T455 287T472 203Q472 158 456 119T410 51T342 6T257 -11Q213 -11 174 6T107 52T62 121T45 207Q45 250 62 288T108 355T176 400T259 417ZM252 467L223 483L314 608L357 581L252 467Z"  />
<glyph unicode="&#xF4;" horiz-adv-x="517" d="M257 380Q222 380 191 367T136 329T100 274T86 206Q86 168 99 135T135 78T189 40T256 26Q293 26 325 39T380 77T417 133T431 203Q431 240 418 272T381 329T326 366T257 380ZM259 417Q304 417 342 401T410 355T455 287T472 203Q472 158 456 119T410 51T342 6T257 -11Q213 -11 174 6T107 52T62 121T45 207Q45 250 62 288T108 355T176 400T259 417ZM259 606L380 492L348 467L259 554L170 467L137 492L259 606Z"  />
<glyph unicode="&#xF5;" horiz-adv-x="517" d="M257 380Q222 380 191 367T136 329T100 274T86 206Q86 168 99 135T135 78T189 40T256 26Q293 26 325 39T380 77T417 133T431 203Q431 240 418 272T381 329T326 366T257 380ZM259 417Q304 417 342 401T410 355T455 287T472 203Q472 158 456 119T410 51T342 6T257 -11Q213 -11 174 6T107 52T62 121T45 207Q45 250 62 288T108 355T176 400T259 417ZM140 509Q165 567 209 567Q217 567 223 566T238 562T260 553T296 537Q313 530 324 530Q337 530 346 539T366 568L391 549Q373 491 321 491Q310 491 299 494T267 507Q238 520 225 524T204 529Q179 529 166 490L140 509Z"  />
<glyph unicode="&#xF6;" horiz-adv-x="517" d="M257 380Q222 380 191 367T136 329T100 274T86 206Q86 168 99 135T135 78T189 40T256 26Q293 26 325 39T380 77T417 133T431 203Q431 240 418 272T381 329T326 366T257 380ZM259 417Q304 417 342 401T410 355T455 287T472 203Q472 158 456 119T410 51T342 6T257 -11Q213 -11 174 6T107 52T62 121T45 207Q45 250 62 288T108 355T176 400T259 417ZM342 566Q356 566 367 556T378 530Q378 515 367 504T342 493Q326 493 316 504T305 530Q305 544 316 555T342 566ZM176 566Q191 566 201 556T212 530Q212 515 201 504T176 493Q161 493 150 504T139 530Q139 545 150 555T176 566Z"  />
<glyph unicode="&#xF7;" horiz-adv-x="547" d="M273 480Q288 480 298 470T309 444Q309 429 298 418T273 407Q258 407 247 418T236 444Q236 458 247 469T273 480ZM273 267Q288 267 298 257T309 231Q309 216 298 205T273 194Q258 194 247 205T236 231Q236 245 247 256T273 267ZM31 360H515V320H31V360Z"  />
<glyph unicode="&#xF8;" horiz-adv-x="517" d="M145 69Q195 26 258 26Q294 26 326 39T381 77T417 133T431 203Q431 238 422 265T390 319L145 69ZM365 342Q315 380 257 380Q221 380 190 367T136 329T100 273T86 204Q86 175 95 146T122 94L365 342ZM93 67Q45 125 45 204Q45 248 61 287T107 355T175 400T258 417Q334 417 394 369L448 423L473 399L419 345Q472 286 472 202Q472 157 456 119T411 51T343 6T260 -11Q181 -11 117 43L63 -12L41 13L93 67Z"  />
<glyph unicode="&#xF9;" horiz-adv-x="436" d="M111 165Q111 130 114 110T124 75Q135 53 161 40T218 26Q248 26 274 39T311 75Q318 89 321 109T324 165V408H364V151Q364 108 358 84T334 39Q314 16 283 3T217 -11Q182 -11 152 2T101 39Q84 59 78 83T71 151V408H111V165ZM174 608L266 483L236 467L132 581L174 608Z"  />
<glyph unicode="&#xFA;" horiz-adv-x="436" d="M111 165Q111 130 114 110T124 75Q135 53 161 40T218 26Q248 26 274 39T311 75Q318 89 321 109T324 165V408H364V151Q364 108 358 84T334 39Q314 16 283 3T217 -11Q182 -11 152 2T101 39Q84 59 78 83T71 151V408H111V165ZM211 467L182 483L273 608L316 581L211 467Z"  />
<glyph unicode="&#xFB;" horiz-adv-x="436" d="M111 165Q111 130 114 110T124 75Q135 53 161 40T218 26Q248 26 274 39T311 75Q318 89 321 109T324 165V408H364V151Q364 108 358 84T334 39Q314 16 283 3T217 -11Q182 -11 152 2T101 39Q84 59 78 83T71 151V408H111V165ZM219 606L340 492L308 467L219 554L130 467L97 492L219 606Z"  />
<glyph unicode="&#xFC;" horiz-adv-x="436" d="M111 165Q111 130 114 110T124 75Q135 53 161 40T218 26Q248 26 274 39T311 75Q318 89 321 109T324 165V408H364V151Q364 108 358 84T334 39Q314 16 283 3T217 -11Q182 -11 152 2T101 39Q84 59 78 83T71 151V408H111V165ZM302 566Q316 566 327 556T338 530Q338 515 327 504T302 493Q286 493 276 504T265 530Q265 544 276 555T302 566ZM136 566Q151 566 161 556T172 530Q172 515 161 504T136 493Q121 493 110 504T99 530Q99 545 110 555T136 566Z"  />
<glyph unicode="&#xFD;" horiz-adv-x="428" d="M8 408H55L222 46L374 408H420L146 -239H101L201 -7L8 408ZM207 467L178 483L269 608L312 581L207 467Z"  />
<glyph unicode="&#xFE;" horiz-adv-x="515" d="M269 380Q234 380 205 367T154 329T120 272T108 199Q108 114 159 70Q208 26 269 26Q303 26 332 39T382 75T416 130T429 198Q429 237 417 270T384 328T334 366T269 380ZM71 -239V729H111V335Q139 375 179 396T270 417Q313 417 350 401T413 356T455 288T470 201Q470 154 456 116T415 49T352 5T272 -11Q221 -11 182 9T111 71V-239H71Z"  />
<glyph unicode="&#xFF;" horiz-adv-x="428" d="M8 408H55L222 46L374 408H420L146 -239H101L201 -7L8 408ZM299 566Q313 566 324 556T335 530Q335 515 324 504T299 493Q283 493 273 504T262 530Q262 544 273 555T299 566ZM133 566Q148 566 158 556T169 530Q169 515 158 504T133 493Q118 493 107 504T96 530Q96 545 107 555T133 566Z"  />
<glyph unicode="&#x131;" horiz-adv-x="183" d="M111 0H71V408H111V0Z"  />
<glyph unicode="&#x152;" horiz-adv-x="1071" d="M400 635Q340 635 285 611T189 546T123 450T98 336Q98 268 123 211T198 109Q240 71 292 51T396 30Q458 30 513 54T609 119T674 215T698 333Q698 395 675 450T611 546T516 611T400 635ZM742 627V385H1011V345H742V40H1018V0H699V172Q677 130 645 96T575 38T492 2T401 -11Q330 -11 267 16T157 91T81 200T53 333Q53 403 80 465T155 574T265 648T400 676Q447 676 491 664T574 628T645 570T699 494V667H1018V627H742Z"  />
<glyph unicode="&#x153;" horiz-adv-x="868" d="M258 380Q223 380 192 366T137 328T100 272T86 204Q86 167 99 135T136 78T190 40T256 26Q293 26 325 39T381 76T418 131T432 199Q432 237 419 270T382 327T326 366T258 380ZM780 239Q768 307 729 343T629 380Q568 380 529 344T477 239H780ZM474 201Q475 172 479 153T493 113Q513 73 551 50T634 26Q682 26 716 49T776 121L809 101Q750 -11 630 -11Q569 -11 523 20T451 110Q419 50 370 20T258 -11Q214 -11 175 5T107 51T62 119T45 202Q45 247 61 286T107 354T176 400T260 417Q323 417 372 387T451 297Q474 354 519 385T628 417Q672 417 708 402T769 359T809 290T824 201H474Z"  />
<glyph unicode="&#x160;" horiz-adv-x="512" d="M393 555Q364 599 335 617T262 635Q235 635 213 626T173 599T147 559T137 509Q137 489 142 473T161 442T198 413T255 382Q286 367 306 357T341 340T366 326T388 313Q458 267 458 185Q458 144 442 109T397 47T330 5T249 -11Q112 -11 53 132L90 150Q102 124 109 111T127 86Q148 60 181 45T250 30Q283 30 313 42T365 76T400 125T413 185Q413 249 348 288Q340 293 333 296T314 306T282 322T224 351Q186 370 161 387T120 422T99 462T92 510Q92 546 105 576T140 629T194 663T263 676Q315 676 357 652T425 581L393 555ZM173 853L262 766L351 853L383 828L262 714L140 828L173 853Z"  />
<glyph unicode="&#x161;" horiz-adv-x="342" d="M253 333Q227 380 183 380Q154 380 133 361T112 314Q112 290 129 275T192 242Q212 234 224 230T244 221T258 214T271 205Q311 174 311 118Q311 90 301 67T274 26T232 -1T178 -11Q126 -11 90 17T38 97L77 109Q106 26 178 26Q217 26 243 52T270 117Q270 148 253 165T191 200Q124 224 98 249T71 312Q71 334 79 353T103 386T138 408T181 417Q252 417 287 351L253 333ZM94 606L183 519L272 606L304 581L183 467L61 581L94 606Z"  />
<glyph unicode="&#x178;" horiz-adv-x="514" d="M13 667H63L253 332L448 667H499L274 285V0H231V285L13 667ZM329 811Q343 811 354 801T365 775Q365 760 354 749T329 738Q313 738 303 749T292 775Q292 789 303 800T329 811ZM163 811Q178 811 188 801T199 775Q199 760 188 749T163 738Q148 738 137 749T126 775Q126 790 137 800T163 811Z"  />
<glyph unicode="&#x17D;" horiz-adv-x="555" d="M507 40V0H37L444 627H76V667H519L111 40H507ZM206 853L295 766L384 853L416 828L295 714L173 828L206 853Z"  />
<glyph unicode="&#x17E;" horiz-adv-x="453" d="M433 37V0H18L351 371H71V408H435L104 37H433ZM164 606L253 519L342 606L374 581L253 467L131 581L164 606Z"  />
<glyph unicode="&#x192;" horiz-adv-x="547" d="M397 429L389 391H287L222 43Q213 -7 206 -31T190 -72Q162 -124 100 -124Q83 -124 68 -121T30 -109L38 -72Q63 -81 73 -83T98 -86Q115 -86 127 -81T148 -65T163 -34T175 16L247 391H185L194 429H254L291 629Q296 656 302 673T317 702Q329 719 351 729T400 740Q415 740 426 738T455 727L448 690Q432 697 422 699T400 701Q360 701 344 671Q339 660 336 646T326 600L294 429H397Z"  />
<glyph unicode="&#x2C6;" horiz-adv-x="500" d="M250 606L371 492L339 467L250 554L161 467L128 492L250 606Z"  />
<glyph unicode="&#x2C7;" horiz-adv-x="500" d="M161 606L250 519L339 606L371 581L250 467L128 581L161 606Z"  />
<glyph unicode="&#x2DA;" horiz-adv-x="500" d="M249 584Q232 584 220 572T208 544Q208 527 220 515T250 502Q267 502 279 514T291 543Q291 560 279 572T249 584ZM249 620Q281 620 303 598T326 544Q326 512 304 490T250 467Q218 467 196 489T173 544Q173 575 195 597T249 620Z"  />
<glyph unicode="&#x2DC;" horiz-adv-x="500" d="M124 509Q149 567 193 567Q201 567 207 566T222 562T244 553T280 537Q297 530 308 530Q321 530 330 539T350 568L375 549Q357 491 305 491Q294 491 283 494T251 507Q222 520 209 524T188 529Q163 529 150 490L124 509Z"  />
<glyph unicode="&#x2013;" horiz-adv-x="547" d="M422 227V187H125V227H422Z"  />
<glyph unicode="&#x2014;" horiz-adv-x="505" d="M505 227V187H0V227H505Z"  />
<glyph unicode="&#x2018;" horiz-adv-x="227" d="M63 505L137 705L163 695L103 493L63 505Z"  />
<glyph unicode="&#x2019;" horiz-adv-x="227" d="M163 693L89 493L63 502L123 705L163 693Z"  />
<glyph unicode="&#x201A;" horiz-adv-x="227" d="M163 53L89 -147L63 -137L123 65L163 53Z"  />
<glyph unicode="&#x201C;" horiz-adv-x="343" d="M63 505L137 705L163 695L103 493L63 505ZM179 505L253 705L279 695L219 493L179 505Z"  />
<glyph unicode="&#x201D;" horiz-adv-x="343" d="M279 693L205 493L179 502L239 705L279 693ZM163 693L89 493L63 502L123 705L163 693Z"  />
<glyph unicode="&#x201E;" horiz-adv-x="343" d="M279 53L205 -147L179 -137L239 65L279 53ZM163 53L89 -147L63 -137L123 65L163 53Z"  />
<glyph unicode="&#x2020;" horiz-adv-x="547" d="M295 729V553H454V513H295V-160H252V513H93V553H252V729H295Z"  />
<glyph unicode="&#x2021;" horiz-adv-x="547" d="M295 729V553H454V513H295V135H454V95H295V-160H252V95H93V135H252V513H93V553H252V729H295Z"  />
<glyph unicode="&#x2022;" horiz-adv-x="667" d="M337 477Q365 477 389 466T432 436T462 392T473 339Q473 310 462 285T433 241T389 211T335 200Q306 200 281 211T237 241T207 285T196 338Q196 367 207 392T237 436T281 466T337 477Z"  />
<glyph unicode="&#x2026;" horiz-adv-x="641" d="M534 66Q549 66 559 56T570 30Q570 15 559 4T534 -7Q519 -7 508 4T497 30Q497 44 508 55T534 66ZM320 66Q335 66 345 56T356 30Q356 15 345 4T320 -7Q305 -7 294 4T283 30Q283 45 294 55T320 66ZM107 66Q122 66 132 56T143 30Q143 15 132 4T107 -7Q92 -7 81 4T70 30Q70 45 81 55T107 66Z"  />
<glyph unicode="&#x2030;" horiz-adv-x="931" d="M764 219Q744 219 727 212T697 191T677 162T669 126Q669 85 696 58T764 30Q783 30 800 37T831 58T851 88T859 125Q859 144 852 161T831 191T801 211T764 219ZM763 256Q792 256 816 246T859 219T887 177T898 125Q898 97 888 73T859 32T816 4T762 -6Q734 -6 710 4T667 32T639 74T629 127Q629 154 639 177T668 218T710 246T763 256ZM436 219Q416 219 399 212T369 191T349 162T341 126Q341 85 368 58T436 30Q455 30 472 37T503 58T523 88T531 125Q531 144 524 161T503 191T473 211T436 219ZM436 256Q465 256 489 246T532 219T560 177T571 125Q571 97 561 73T532 32T489 4T435 -6Q407 -6 383 4T340 32T312 74T302 127Q302 154 312 177T341 218T383 246T436 256ZM513 667L117 -15L89 1L484 682L513 667ZM167 637Q148 637 131 630T101 609T81 580T73 544Q73 504 100 476T168 448Q187 448 204 455T234 476T254 506T262 543Q262 562 255 579T234 609T204 629T167 637ZM167 673Q196 673 220 663T263 636T291 594T302 542Q302 514 292 490T263 449T220 421T166 411Q138 411 114 421T71 449T43 491T33 544Q33 571 43 594T72 635T114 663T167 673Z"  />
<glyph unicode="&#x2039;" horiz-adv-x="241" d="M187 81L162 57L33 207L162 356L187 332L81 207L187 81Z"  />
<glyph unicode="&#x203A;" horiz-adv-x="241" d="M53 332L78 356L207 207L78 57L53 81L160 207L53 332Z"  />
<glyph unicode="&#x20AC;" horiz-adv-x="547" d="M133 266Q149 153 203 89T339 24Q417 24 491 84V40Q458 16 418 3T336 -10Q286 -10 243 10T167 66T113 153T85 266H19L30 299H82V329Q82 342 82 354T84 375H19L30 408H87Q107 544 173 615T345 686Q454 686 513 614L498 576Q462 618 429 634T346 651Q255 651 201 589T132 408H445L434 375H130Q129 362 129 353T129 336Q129 325 129 318T130 299H408L398 266H133Z"  />
<glyph unicode="&#x2122;" horiz-adv-x="721" d="M312 698L474 350L638 697L683 287H646L615 564L474 265L334 564L304 287H267L312 698ZM132 287H95V632H1V667H228V632H132V287Z"  />

</font>
</defs>
</svg>
